<svg width="27" height="26" viewBox="0 0 27 26" fill="none" xmlns="http://www.w3.org/2000/svg">
<g clip-path="url(#clip0_5843_22154)">
<path d="M13.3796 25.7396C20.4874 25.7396 26.2494 19.9776 26.2494 12.8698C26.2494 5.76201 20.4874 0 13.3796 0C6.27178 0 0.509766 5.76201 0.509766 12.8698C0.509766 19.9776 6.27178 25.7396 13.3796 25.7396Z" fill="#E84142"/>
<path d="M17.0412 13.0578C17.4008 12.4036 17.9812 12.4036 18.3408 13.0578L20.5802 17.198C20.9399 17.8521 20.6457 18.3858 19.9264 18.3858H15.4148C14.7037 18.3858 14.4094 17.8521 14.7609 17.198L17.0412 13.0578ZM12.7093 5.0873C13.069 4.43314 13.6411 4.43314 14.0007 5.0873L14.4993 6.03412L15.6763 8.21179C15.9624 8.83153 15.9624 9.56314 15.6763 10.1829L11.7286 17.3874C11.3689 17.9727 10.7722 18.3428 10.1103 18.3858H6.83274C6.11349 18.3858 5.81925 17.8607 6.17887 17.198L12.7093 5.0873Z" fill="white"/>
</g>
<defs>
<clipPath id="clip0_5843_22154">
<rect width="25.7396" height="25.7396" fill="white" transform="translate(0.509766)"/>
</clipPath>
</defs>
</svg>
