<svg width="26" height="26" viewBox="0 0 26 26" fill="none" xmlns="http://www.w3.org/2000/svg">
<g clip-path="url(#clip0_5843_22151)">
<path d="M12.8757 25.7396C19.9835 25.7396 25.7455 19.9776 25.7455 12.8698C25.7455 5.76201 19.9835 0 12.8757 0C5.76787 0 0.00585938 5.76201 0.00585938 12.8698C0.00585938 19.9776 5.76787 25.7396 12.8757 25.7396Z" fill="#0062F9"/>
<path d="M12.1479 5.66569C12.5434 5.46691 13.1454 5.46691 13.541 5.66569L17.5778 7.69406C17.8191 7.81532 17.9502 7.99678 17.9711 8.18346L17.9741 8.18343V18.4241H17.9735C17.9635 18.6227 17.8316 18.8185 17.5778 18.9472L13.541 20.9938C13.1455 21.1943 12.5435 21.1943 12.1479 20.9938L8.11123 18.9472C7.85325 18.8165 7.72945 18.6137 7.72331 18.4118L7.72387 18.4241H7.72282V8.18343L7.72444 8.18348C7.73983 7.99459 7.8648 7.81786 8.11119 7.69406L12.1479 5.66569ZM8.33567 13.8894V18.38L12.1479 20.3026C12.368 20.4154 12.5967 20.5255 12.8197 20.5338L12.8445 20.5343C13.0465 20.5349 13.2433 20.4472 13.4417 20.3539L13.5132 20.3204L17.3613 18.3636V13.9291L13.5863 15.8215C13.1971 16.0166 12.6086 16.0202 12.2121 15.8323L12.1898 15.8215L8.33567 13.8894ZM7.07802 18.2108C7.07802 18.6004 7.12583 18.8565 7.22077 19.037C7.29946 19.1866 7.41753 19.3008 7.6331 19.4399L7.64541 19.4478C7.69272 19.478 7.74483 19.5097 7.80827 19.5468L7.88308 19.5902L8.11281 19.7216L7.78332 20.2376L7.52619 20.0904L7.48298 20.0653C7.40863 20.0218 7.34701 19.9845 7.28954 19.9478C6.67513 19.5555 6.44599 19.1276 6.44147 18.2379L6.44141 18.2108H7.07802ZM13.1828 11.1733V15.3276C13.2212 15.3165 13.257 15.3029 13.2888 15.287L17.3351 13.2586C17.3393 13.2565 17.3433 13.2544 17.3472 13.2523L17.3506 13.2504L17.3443 13.247L17.3351 13.2422L13.2888 11.2138C13.257 11.1979 13.2212 11.1844 13.1828 11.1733ZM12.5698 11.1804C12.5403 11.19 12.5126 11.2012 12.4873 11.2138L8.44105 13.2422C8.4368 13.2444 8.43275 13.2465 8.4289 13.2485L8.42547 13.2504L8.43183 13.2538L8.44105 13.2586L12.4873 15.287C12.5126 15.2997 12.5403 15.3108 12.5698 15.3205V11.1804ZM8.33567 8.89228V12.6114L12.0408 10.754L8.33567 8.89228ZM17.3613 8.88823L13.6915 10.7321L17.3613 12.5717V8.88823ZM13.2443 6.20019C13.0343 6.09471 12.6546 6.09471 12.4446 6.20019L8.40793 8.22857C8.4037 8.2307 8.39966 8.23281 8.39581 8.23488L8.3924 8.23677L8.39873 8.24022L8.40793 8.24498L12.4446 10.2734C12.6546 10.3788 13.0343 10.3788 13.2443 10.2734L17.281 8.24498C17.2852 8.24284 17.2893 8.24074 17.2931 8.23866L17.2965 8.23677L17.2902 8.23332L17.281 8.22857L13.2443 6.20019ZM17.9693 6.42333L18.2264 6.57042L18.2697 6.59555C18.344 6.63902 18.4057 6.67636 18.4631 6.71306C19.0775 7.10541 19.3066 7.53316 19.3111 8.42301L19.3112 8.45012H18.6746C18.6746 8.06043 18.6268 7.80431 18.5319 7.62387C18.4532 7.47431 18.3351 7.36002 18.1196 7.22095L18.1073 7.21306C18.0599 7.18284 18.0078 7.15119 17.9444 7.11399L17.8695 7.0706L17.6398 6.93928L17.9693 6.42333Z" fill="white"/>
</g>
<defs>
<clipPath id="clip0_5843_22151">
<rect width="25.7396" height="25.7396" fill="white" transform="translate(0.00585938)"/>
</clipPath>
</defs>
</svg>
